Coordinates
version=1
nRows=5
nColumns=42
inDegrees=yes

Units are S.I. units (second, meters, Newtons, ...)
If the header above contains a line with 'inDegrees', this indicates whether rotational values are in degrees (yes) or radians (no).

endheader
time	pelvis_tilt	pelvis_list	pelvis_rotation	pelvis_tx	pelvis_ty	pelvis_tz	hip_flexion_r	hip_adduction_r	hip_rotation_r	knee_angle_r	knee_adduction_r	knee_angle_r_beta	ankle_angle_r	subtalar_angle_r	mtp_angle_r	hip_flexion_l	hip_adduction_l	hip_rotation_l	knee_angle_l	knee_adduction_l	knee_angle_l_beta	ankle_angle_l	subtalar_angle_l	mtp_angle_l	lumbar_extension	lumbar_bending	lumbar_rotation	arm_flex_r	arm_add_r	arm_rot_r	elbow_flex_r	pro_sup_r	wrist_flex_r	wrist_dev_r	arm_flex_l	arm_add_l	arm_rot_l	elbow_flex_l	pro_sup_l	wrist_flex_l	wrist_dev_l
      1.27000000	      1.44036961	      6.24455848	      6.08560160	     -1.04233956	      0.98801592	      0.31924176	     14.07156718	     -6.88806108	    -18.72042144	     11.06763961	      0.10518539	      0.19316675	     -4.56541561	      3.43353459	     -7.90965238	    -16.88053776	      3.31958063	     -0.10729389	     11.29655318	      0.63014148	      0.19716205	      7.91374145	      9.18402552	     -7.90965238	    -18.18665757	     -8.04645588	     -9.29182976	    -12.96805092	    -10.99984912	     19.22346149	     36.62299627	     90.00000001	      0.00000000	      0.00000000	     15.25048793	    -19.86137262	     11.02822818	     46.97562717	     90.00000001	      0.00000000	      0.00000000
      1.28000000	      1.43682169	      6.39545283	      6.12011587	     -1.03502420	      0.98973375	      0.32115356	     13.37630069	     -6.85856279	    -18.79128170	     10.70028572	      0.15278297	      0.18675522	     -4.17722185	      3.66903458	     -7.90486676	    -16.36695544	      3.01179657	      0.04499066	     12.97296928	      1.18146190	      0.22642103	      6.80715918	      8.71144890	     -7.90486676	    -18.32874500	     -8.24964911	     -9.34899572	    -12.41532893	    -10.86846777	     19.11499100	     36.60112764	     90.00000001	      0.00000000	      0.00000000	     14.77442455	    -19.96228617	     11.26875575	     46.37253134	     90.00000001	      0.00000000	      0.00000000
      1.29000000	      1.47131021	      6.38259907	      6.22419643	     -1.02758576	      0.99148789	      0.32295289	     12.50214350	     -6.64639029	    -19.08993163	     10.05189066	      0.21883611	      0.17543859	     -3.95234863	      4.15635829	     -7.89627580	    -15.67504848	      2.52657121	     -0.00393021	     15.05855324	      1.64620259	      0.26282133	      5.75526393	      7.72409404	     -7.89627580	    -18.44847787	     -8.23903314	     -9.38697629	    -11.82165678	    -10.73040154	     18.96567580	     36.41912871	     90.00000001	      0.00000000	      0.00000000	     14.25618588	    -20.10062792	     11.68723845	     45.70190956	     90.00000001	      0.00000000	      0.00000000
      1.30000000	      1.53697231	      6.51379231	      6.30954810	     -1.02028561	      0.99323895	      0.32468275	     11.61843431	     -6.62424875	    -19.31250817	      9.49486238	      0.34088358	      0.16571661	     -3.58785754	      4.54875779	     -7.88930142	    -14.96249535	      2.16726356	      0.08970228	     17.20850409	      2.18741119	      0.30034506	      4.55265803	      7.04057866	     -7.88930142	    -18.62783699	     -8.38671748	     -9.43628977	    -11.22785852	    -10.63596977	     18.89376385	     36.39199673	     90.00000001	      0.00000000	      0.00000000	     13.71663892	    -20.23463766	     11.93955909	     45.15897964	     90.00000001	      0.00000000	      0.00000000
      1.31000000	      1.63183059	      6.67007474	      6.39507591	     -1.01304348	      0.99494053	      0.32640294	     10.69896276	     -6.64871140	    -19.50202536	      8.95265815	      0.52027051	      0.15625336	     -3.22629296	      4.94023072	     -7.88340032	    -14.17344602	      1.81750893	      0.21864415	     19.52673197	      2.74050105	      0.34080577	      3.32942672	      6.39173001	     -7.88340032	    -18.82977192	     -8.55755327	     -9.50067756	    -10.60438701	    -10.55852978	     18.86556197	     36.41453487	     90.00000001	      0.00000000	      0.00000000	     13.13285439	    -20.40352671	     12.11703124	     44.66133268	     90.00000001	      0.00000000	      0.00000000
